#N canvas 0 25 1268 892 10;
#X obj 404 176 noise~;
#X obj 361 718 dac~;
#X obj 360 415 line;
#X obj 345 559 *~;
#X obj 345 598 *~ 0;
#X obj 361 31 dumpOSC 2000;
#X obj 360 80 OSCroute /UITest;
#X obj 263 562 *~;
#X obj 185 341 lop~ 100;
#X obj 373 448 vsl 15 128 0 1 0 0 empty empty empty 0 -8 0 10 -262144
-1 -1 0 1;
#X obj 259 381 line;
#X obj 264 596 *~ 0;
#X obj 289 447 vsl 15 128 0 1 0 0 empty empty empty 0 -8 0 10 -262144
-1 -1 0 1;
#X obj 346 344 lop~ 600;
#X obj 490 422 line;
#X obj 472 570 *~;
#X obj 472 608 *~ 0;
#X obj 503 454 vsl 15 128 0 1 0 0 empty empty empty 0 -8 0 10 -262144
-1 -1 0 1;
#X obj 615 419 line;
#X obj 600 555 *~;
#X obj 600 598 *~ 0;
#X obj 473 343 hip~ 400;
#X obj 602 343 hip~ 800;
#X obj 631 441 vsl 15 128 0 1 0 0 empty empty empty 0 -8 0 10 -262144
-1 -1 0 1;
#X msg 248 342 1 \, 0 1000;
#X msg 406 343 1 \, 0 1000;
#X msg 536 344 1 \, 0 1000;
#X msg 665 343 1 \, 0 1000;
#X obj 399 114 OSCroute /top /right /bottom /left;
#X connect 0 0 8 0;
#X connect 0 0 13 0;
#X connect 0 0 21 0;
#X connect 0 0 22 0;
#X connect 2 0 3 1;
#X connect 3 0 4 0;
#X connect 4 0 1 0;
#X connect 4 0 1 1;
#X connect 5 0 6 0;
#X connect 6 0 28 0;
#X connect 7 0 11 0;
#X connect 8 0 7 0;
#X connect 9 0 4 1;
#X connect 10 0 7 1;
#X connect 11 0 1 0;
#X connect 11 0 1 1;
#X connect 12 0 11 1;
#X connect 13 0 3 0;
#X connect 14 0 15 1;
#X connect 15 0 16 0;
#X connect 16 0 1 0;
#X connect 16 0 1 1;
#X connect 17 0 16 1;
#X connect 18 0 19 1;
#X connect 19 0 20 0;
#X connect 20 0 1 0;
#X connect 20 0 1 1;
#X connect 21 0 15 0;
#X connect 22 0 19 0;
#X connect 23 0 20 1;
#X connect 24 0 10 0;
#X connect 25 0 2 0;
#X connect 26 0 14 0;
#X connect 27 0 18 0;
#X connect 28 0 24 0;
#X connect 28 1 25 0;
#X connect 28 2 26 0;
#X connect 28 3 27 0;
